# xmcd CD database file
#
# Track frame offsets:
#	150
#	7721
#	34824
#	46174
#	62711
#	69649
#	83762
#	87141
#	93504
#	100340
#	110030
#	139162
#	157587
#	167142
#	194234
#	212293
#	225751
#	262673
#
# Disc length: 3660 seconds
#
# Revision: 0
# Processed by: cddbd v1.5.2PL0 Copyright (c) Steve Scherf et al.
# Submitted via: CDex 1.51
#
DISCID=da0e4a12
DTITLE=Duke Ellington - Städtischer Musikverein Gütersloh 2011
DYEAR=2011
DGENRE=Jazz
TTITLE0=1 PRAISE GOD - Choir and Band
TTITLE1=2 HEAVEN - Soprano-Solo, Choir and Band
TTITLE2=3. FREEDOM-SUITE - a. To be contented - Soprano-Solo, Choir and Band
TTITLE3=3. FREEDOM-SUITE - b. Freedom - Choir, Alto-Sax and Rhytm section
TTITLE4=Martin Luther King, Jr. - I have a dream - Speaker
TTITLE5=3. FREEDOM-SUITE - c. Word you heard - Choir and Band
TTITLE6=3 FREEDOM-SUITE - e. Freedom is a word - Coir and Rezitation
TTITLE7=3 FREEDOM-SUITE - e Sweet, fat and that - Choir and Rhythm Section
TTITLE8=3 FREEDOM-SUITE - f Freedom - Svoboda - Rezitation
TTITLE9=3 FREEDOM-SUITE - g To be contented - Choir and Band
TTITLE10=4 THE SHEPHERD - Trumpet-Solo and Band
TTITLE11=5 THE MAJESTY OF GOD - Soprano-Solo, Choir and Band
TTITLE12=6 COME SUNDAY - Soprano-Solo, Choir and Band
TTITLE13=7 DAVID DANCED - Tapdancer, Choir and Band
TTITLE14=8 ALMIGHTY GOD - Soprano-Solo, Choir and Band
TTITLE15=9 T.G.T.T - Soprano-Solo, Choir and Band
TTITLE16=10 PRAISE GOD AND DANCE - Soprano-Solo, Choir and Band
TTITLE17=3 FREEDOM-SUITE - g To be contented - Choir and Band
EXTD=YEAR: 2011
EXTT0=
EXTT1=
EXTT2=
EXTT3=
EXTT4=
EXTT5=
EXTT6=
EXTT7=
EXTT8=
EXTT9=
EXTT10=
EXTT11=
EXTT12=
EXTT13=
EXTT14=
EXTT15=
EXTT16=
EXTT17=
PLAYORDER=
